<svg xmlns="http://www.w3.org/2000/svg" width="1024" height="1024" viewBox="0 0 1024 1024">
  <defs>
    <linearGradient id="bg" x1="0%" y1="0%" x2="100%" y2="100%">
      <stop offset="0%" stop-color="#0f766e"/>
      <stop offset="100%" stop-color="#115e59"/>
    </linearGradient>
    <linearGradient id="paper" x1="0%" y1="0%" x2="0%" y2="100%">
      <stop offset="0%" stop-color="#fffaf0"/>
      <stop offset="100%" stop-color="#f4f1de"/>
    </linearGradient>
  </defs>
  <rect width="1024" height="1024" rx="224" fill="url(#bg)"/>
  <circle cx="795" cy="229" r="116" fill="#99f6e4" opacity="0.22"/>
  <circle cx="188" cy="836" r="132" fill="#14b8a6" opacity="0.22"/>
  <g transform="translate(208 156)">
    <rect x="0" y="54" width="608" height="664" rx="74" fill="url(#paper)"/>
    <rect x="58" y="160" width="492" height="46" rx="23" fill="#0f766e" opacity="0.12"/>
    <rect x="58" y="249" width="492" height="46" rx="23" fill="#0f766e" opacity="0.12"/>
    <rect x="58" y="338" width="322" height="46" rx="23" fill="#0f766e" opacity="0.12"/>
    <rect x="58" y="428" width="492" height="46" rx="23" fill="#0f766e" opacity="0.12"/>
    <rect x="58" y="517" width="402" height="46" rx="23" fill="#0f766e" opacity="0.12"/>
    <g transform="translate(382 0)">
      <path d="M120 24c69.588 0 126 56.412 126 126s-56.412 126-126 126S-6 219.588-6 150 50.412 24 120 24Z" fill="#f59e0b"/>
      <path d="M120 72c43.078 0 78 34.922 78 78s-34.922 78-78 78-78-34.922-78-78 34.922-78 78-78Z" fill="#fff7ed"/>
      <path d="M98 117h44c24.301 0 44 19.699 44 44s-19.699 44-44 44H98Z" fill="#f59e0b"/>
      <rect x="79" y="117" width="38" height="177" rx="19" fill="#f59e0b"/>
      <rect x="71" y="274" width="159" height="28" rx="14" fill="#f59e0b"/>
    </g>
  </g>
</svg>